<?xml version="1.0" encoding="UTF-8"?>
<svg xmlns="http://www.w3.org/2000/svg"
     width="700" height="400"
     viewBox="0 0 700 400">
  <line x1="60.00" y1="360.00" x2="680.00" y2="360.00" stroke="#e5e5e5" stroke-width="1.00"/>
  <line x1="60.00" y1="271.69" x2="680.00" y2="271.69" stroke="#e5e5e5" stroke-width="1.00"/>
  <line x1="60.00" y1="183.38" x2="680.00" y2="183.38" stroke="#e5e5e5" stroke-width="1.00"/>
  <line x1="60.00" y1="95.06" x2="680.00" y2="95.06" stroke="#e5e5e5" stroke-width="1.00"/>
  <line x1="60.00" y1="360.00" x2="680.00" y2="360.00" stroke="#a3a3a3" stroke-width="1.00"/>
  <rect x="72.40" y="289.35" width="21.26" height="70.65" fill="#3b82f6"/>
  <rect x="93.66" y="315.84" width="21.26" height="44.16" fill="#ef4444"/>
  <rect x="114.91" y="342.34" width="21.26" height="17.66" fill="#22c55e"/>
  <rect x="160.97" y="254.03" width="21.26" height="105.97" fill="#3b82f6"/>
  <rect x="182.23" y="298.18" width="21.26" height="61.82" fill="#ef4444"/>
  <rect x="203.49" y="333.51" width="21.26" height="26.49" fill="#22c55e"/>
  <rect x="249.54" y="227.53" width="21.26" height="132.47" fill="#3b82f6"/>
  <rect x="270.80" y="280.52" width="21.26" height="79.48" fill="#ef4444"/>
  <rect x="292.06" y="324.68" width="21.26" height="35.32" fill="#22c55e"/>
  <rect x="338.11" y="165.71" width="21.26" height="194.29" fill="#3b82f6"/>
  <rect x="359.37" y="262.86" width="21.26" height="97.14" fill="#ef4444"/>
  <rect x="380.63" y="307.01" width="21.26" height="52.99" fill="#22c55e"/>
  <rect x="426.69" y="112.73" width="21.26" height="247.27" fill="#3b82f6"/>
  <rect x="447.94" y="236.36" width="21.26" height="123.64" fill="#ef4444"/>
  <rect x="469.20" y="289.35" width="21.26" height="70.65" fill="#22c55e"/>
  <rect x="515.26" y="86.23" width="21.26" height="273.77" fill="#3b82f6"/>
  <rect x="536.51" y="254.03" width="21.26" height="105.97" fill="#ef4444"/>
  <rect x="557.77" y="271.69" width="21.26" height="88.31" fill="#22c55e"/>
  <rect x="603.83" y="50.91" width="21.26" height="309.09" fill="#3b82f6"/>
  <rect x="625.09" y="218.70" width="21.26" height="141.30" fill="#ef4444"/>
  <rect x="646.34" y="254.03" width="21.26" height="105.97" fill="#22c55e"/>
  <line x1="60.00" y1="360.00" x2="680.00" y2="360.00" stroke="#a3a3a3" stroke-width="1.00"/>
  <text x="104.29" y="373.00" font-family="sans-serif" font-size="11.0" fill="#525252" text-anchor="middle" dominant-baseline="hanging">Jan</text>
  <text x="192.86" y="373.00" font-family="sans-serif" font-size="11.0" fill="#525252" text-anchor="middle" dominant-baseline="hanging">Feb</text>
  <text x="281.43" y="373.00" font-family="sans-serif" font-size="11.0" fill="#525252" text-anchor="middle" dominant-baseline="hanging">Mar</text>
  <text x="370.00" y="373.00" font-family="sans-serif" font-size="11.0" fill="#525252" text-anchor="middle" dominant-baseline="hanging">Apr</text>
  <text x="458.57" y="373.00" font-family="sans-serif" font-size="11.0" fill="#525252" text-anchor="middle" dominant-baseline="hanging">May</text>
  <text x="547.14" y="373.00" font-family="sans-serif" font-size="11.0" fill="#525252" text-anchor="middle" dominant-baseline="hanging">Jun</text>
  <text x="635.71" y="373.00" font-family="sans-serif" font-size="11.0" fill="#525252" text-anchor="middle" dominant-baseline="hanging">Jul</text>
  <line x1="60.00" y1="20.00" x2="60.00" y2="360.00" stroke="#a3a3a3" stroke-width="1.00"/>
  <line x1="55.00" y1="360.00" x2="60.00" y2="360.00" stroke="#a3a3a3" stroke-width="1.00"/>
  <text x="47.00" y="360.00" font-family="sans-serif" font-size="11.0" fill="#525252" text-anchor="end" dominant-baseline="middle">0</text>
  <line x1="55.00" y1="271.69" x2="60.00" y2="271.69" stroke="#a3a3a3" stroke-width="1.00"/>
  <text x="47.00" y="271.69" font-family="sans-serif" font-size="11.0" fill="#525252" text-anchor="end" dominant-baseline="middle">10</text>
  <line x1="55.00" y1="183.38" x2="60.00" y2="183.38" stroke="#a3a3a3" stroke-width="1.00"/>
  <text x="47.00" y="183.38" font-family="sans-serif" font-size="11.0" fill="#525252" text-anchor="end" dominant-baseline="middle">20</text>
  <line x1="55.00" y1="95.06" x2="60.00" y2="95.06" stroke="#a3a3a3" stroke-width="1.00"/>
  <text x="47.00" y="95.06" font-family="sans-serif" font-size="11.0" fill="#525252" text-anchor="end" dominant-baseline="middle">30</text>
</svg>
