<?xml version="1.0" encoding="UTF-8"?>
<svg xmlns="http://www.w3.org/2000/svg"
     width="700" height="400"
     viewBox="0 0 700 400">
  <line x1="60.00" y1="360.00" x2="680.00" y2="360.00" stroke="#e5e5e5" stroke-width="1.00"/>
  <line x1="60.00" y1="276.01" x2="680.00" y2="276.01" stroke="#e5e5e5" stroke-width="1.00"/>
  <line x1="60.00" y1="192.02" x2="680.00" y2="192.02" stroke="#e5e5e5" stroke-width="1.00"/>
  <line x1="60.00" y1="108.02" x2="680.00" y2="108.02" stroke="#e5e5e5" stroke-width="1.00"/>
  <line x1="60.00" y1="24.03" x2="680.00" y2="24.03" stroke="#e5e5e5" stroke-width="1.00"/>
  <line x1="60.00" y1="360.00" x2="680.00" y2="360.00" stroke="#a3a3a3" stroke-width="1.00"/>
  <rect x="72.40" y="284.41" width="63.77" height="75.59" fill="#3b82f6"/>
  <rect x="72.40" y="237.37" width="63.77" height="47.04" fill="#ef4444"/>
  <rect x="72.40" y="217.21" width="63.77" height="20.16" fill="#22c55e"/>
  <rect x="160.97" y="255.85" width="63.77" height="104.15" fill="#3b82f6"/>
  <rect x="160.97" y="197.06" width="63.77" height="58.79" fill="#ef4444"/>
  <rect x="160.97" y="166.82" width="63.77" height="30.24" fill="#22c55e"/>
  <rect x="249.54" y="228.97" width="63.77" height="131.03" fill="#3b82f6"/>
  <rect x="249.54" y="160.10" width="63.77" height="68.87" fill="#ef4444"/>
  <rect x="249.54" y="123.14" width="63.77" height="36.96" fill="#22c55e"/>
  <rect x="338.11" y="267.61" width="63.77" height="92.39" fill="#3b82f6"/>
  <rect x="338.11" y="213.85" width="63.77" height="53.75" fill="#ef4444"/>
  <rect x="338.11" y="188.66" width="63.77" height="25.20" fill="#22c55e"/>
  <rect x="426.69" y="240.73" width="63.77" height="119.27" fill="#3b82f6"/>
  <rect x="426.69" y="160.10" width="63.77" height="80.63" fill="#ef4444"/>
  <rect x="426.69" y="118.10" width="63.77" height="42.00" fill="#22c55e"/>
  <rect x="515.26" y="210.49" width="63.77" height="149.51" fill="#3b82f6"/>
  <rect x="515.26" y="123.14" width="63.77" height="87.35" fill="#ef4444"/>
  <rect x="515.26" y="71.07" width="63.77" height="52.08" fill="#22c55e"/>
  <rect x="603.83" y="200.42" width="63.77" height="159.58" fill="#3b82f6"/>
  <rect x="603.83" y="97.94" width="63.77" height="102.47" fill="#ef4444"/>
  <rect x="603.83" y="50.91" width="63.77" height="47.04" fill="#22c55e"/>
  <line x1="60.00" y1="360.00" x2="680.00" y2="360.00" stroke="#a3a3a3" stroke-width="1.00"/>
  <text x="104.29" y="373.00" font-family="sans-serif" font-size="11.0" fill="#525252" text-anchor="middle" dominant-baseline="hanging">Q1 2025</text>
  <text x="192.86" y="373.00" font-family="sans-serif" font-size="11.0" fill="#525252" text-anchor="middle" dominant-baseline="hanging">Q2 2025</text>
  <text x="281.43" y="373.00" font-family="sans-serif" font-size="11.0" fill="#525252" text-anchor="middle" dominant-baseline="hanging">Q3 2025</text>
  <text x="370.00" y="373.00" font-family="sans-serif" font-size="11.0" fill="#525252" text-anchor="middle" dominant-baseline="hanging">Q4 2025</text>
  <text x="458.57" y="373.00" font-family="sans-serif" font-size="11.0" fill="#525252" text-anchor="middle" dominant-baseline="hanging">Q1 2026</text>
  <text x="547.14" y="373.00" font-family="sans-serif" font-size="11.0" fill="#525252" text-anchor="middle" dominant-baseline="hanging">Q2 2026</text>
  <text x="635.71" y="373.00" font-family="sans-serif" font-size="11.0" fill="#525252" text-anchor="middle" dominant-baseline="hanging">Q3 2026</text>
  <line x1="60.00" y1="20.00" x2="60.00" y2="360.00" stroke="#a3a3a3" stroke-width="1.00"/>
  <line x1="55.00" y1="360.00" x2="60.00" y2="360.00" stroke="#a3a3a3" stroke-width="1.00"/>
  <text x="47.00" y="360.00" font-family="sans-serif" font-size="11.0" fill="#525252" text-anchor="end" dominant-baseline="middle">0</text>
  <line x1="55.00" y1="276.01" x2="60.00" y2="276.01" stroke="#a3a3a3" stroke-width="1.00"/>
  <text x="47.00" y="276.01" font-family="sans-serif" font-size="11.0" fill="#525252" text-anchor="end" dominant-baseline="middle">50.0K</text>
  <line x1="55.00" y1="192.02" x2="60.00" y2="192.02" stroke="#a3a3a3" stroke-width="1.00"/>
  <text x="47.00" y="192.02" font-family="sans-serif" font-size="11.0" fill="#525252" text-anchor="end" dominant-baseline="middle">100.0K</text>
  <line x1="55.00" y1="108.02" x2="60.00" y2="108.02" stroke="#a3a3a3" stroke-width="1.00"/>
  <text x="47.00" y="108.02" font-family="sans-serif" font-size="11.0" fill="#525252" text-anchor="end" dominant-baseline="middle">150.0K</text>
  <line x1="55.00" y1="24.03" x2="60.00" y2="24.03" stroke="#a3a3a3" stroke-width="1.00"/>
  <text x="47.00" y="24.03" font-family="sans-serif" font-size="11.0" fill="#525252" text-anchor="end" dominant-baseline="middle">200.0K</text>
</svg>
