<?xml version="1.0" encoding="UTF-8"?>
<svg xmlns="http://www.w3.org/2000/svg"
     width="400" height="300"
     viewBox="0 0 400 300">
  <path d="M128.08,60.08 A130.00,130.00 0.00 1,1 128.08,243.92 L149.29,222.71 A100.00,100.00 0.00 1,0 149.29,81.29 Z " fill="#e5e5e5"/>
  <path d="M128.08,60.08 A130.00,130.00 0.00 0,1 310.47,58.64 L289.59,80.19 A100.00,100.00 0.00 0,0 149.29,81.29 Z " fill="#10b981"/>
  <path d="M310.47,58.64 A130.00,130.00 0.00 0,1 314.77,240.99 L292.90,220.45 A100.00,100.00 0.00 0,0 289.59,80.19 Z " fill="#f59e0b"/>
  <path d="M314.77,240.99 A130.00,130.00 0.00 0,1 128.08,243.92 L149.29,222.71 A100.00,100.00 0.00 0,0 292.90,220.45 Z " fill="#ef4444"/>
  <line x1="128.08" y1="60.08" x2="138.68" y2="70.68" stroke="#737373" stroke-width="2.00"/>
  <line x1="146.93" y1="44.48" x2="151.43" y2="51.10" stroke="#737373" stroke-width="2.00"/>
  <line x1="168.37" y1="32.69" x2="171.55" y2="40.03" stroke="#737373" stroke-width="2.00"/>
  <line x1="191.64" y1="25.13" x2="193.39" y2="32.94" stroke="#737373" stroke-width="2.00"/>
  <line x1="215.92" y1="22.06" x2="216.17" y2="30.06" stroke="#737373" stroke-width="2.00"/>
  <line x1="240.34" y1="23.60" x2="237.99" y2="38.42" stroke="#737373" stroke-width="2.00"/>
  <line x1="264.04" y1="29.69" x2="261.33" y2="37.21" stroke="#737373" stroke-width="2.00"/>
  <line x1="286.18" y1="40.10" x2="282.10" y2="46.99" stroke="#737373" stroke-width="2.00"/>
  <line x1="305.97" y1="54.49" x2="300.68" y2="60.49" stroke="#737373" stroke-width="2.00"/>
  <line x1="322.72" y1="72.32" x2="316.40" y2="77.23" stroke="#737373" stroke-width="2.00"/>
  <line x1="335.83" y1="92.98" x2="322.47" y2="99.79" stroke="#737373" stroke-width="2.00"/>
  <line x1="344.84" y1="115.73" x2="337.16" y2="117.96" stroke="#737373" stroke-width="2.00"/>
  <line x1="349.42" y1="139.77" x2="341.46" y2="140.52" stroke="#737373" stroke-width="2.00"/>
  <line x1="349.42" y1="164.23" x2="341.46" y2="163.48" stroke="#737373" stroke-width="2.00"/>
  <line x1="344.84" y1="188.27" x2="337.16" y2="186.04" stroke="#737373" stroke-width="2.00"/>
  <line x1="335.83" y1="211.02" x2="322.47" y2="204.21" stroke="#737373" stroke-width="2.00"/>
  <line x1="322.72" y1="231.68" x2="316.40" y2="226.77" stroke="#737373" stroke-width="2.00"/>
  <line x1="305.97" y1="249.51" x2="300.68" y2="243.51" stroke="#737373" stroke-width="2.00"/>
  <line x1="286.18" y1="263.90" x2="282.10" y2="257.01" stroke="#737373" stroke-width="2.00"/>
  <line x1="264.04" y1="274.31" x2="261.33" y2="266.79" stroke="#737373" stroke-width="2.00"/>
  <line x1="240.34" y1="280.40" x2="237.99" y2="265.58" stroke="#737373" stroke-width="2.00"/>
  <line x1="215.92" y1="281.94" x2="216.17" y2="273.94" stroke="#737373" stroke-width="2.00"/>
  <line x1="191.64" y1="278.87" x2="193.39" y2="271.06" stroke="#737373" stroke-width="2.00"/>
  <line x1="168.37" y1="271.31" x2="171.55" y2="263.97" stroke="#737373" stroke-width="2.00"/>
  <line x1="146.93" y1="259.52" x2="151.43" y2="252.90" stroke="#737373" stroke-width="2.00"/>
  <line x1="128.08" y1="243.92" x2="138.68" y2="233.32" stroke="#737373" stroke-width="2.00"/>
  <path d="M218.47,153.29 L300.43,247.69 L221.53,150.71 Z " fill="#262626"/>
  <circle cx="220.00" cy="152.00" r="10.00" fill="none" stroke="#404040" stroke-width="1.00"/>
  <text x="220.00" y="191.00" font-family="sans-serif" font-size="32.0" font-weight="bold" fill="#262626" text-anchor="middle">69</text>
  <text x="117.47" y="49.47" font-family="sans-serif" font-size="12.0" fill="#525252" text-anchor="middle">0</text>
  <text x="117.47" y="254.53" font-family="sans-serif" font-size="12.0" fill="#525252" text-anchor="middle">100</text>
</svg>
